PathFileType	4	(X/Y/Z)	TRAIL_071_EP_01_markers.trc
DataRate	CameraRate	NumFrames	NumMarkers	Units	OrigDataRate	OrigDataStartFrame	OrigNumFrames
200	200	4	44	mm	200	237	270
Frame#	Time	RSH			LSH			C7			LELB			LWR			RELB			RWR			RASI			LASI			SACR			P1			P2			LTHLP			LTHLD			LTHAP			LTHAD			LLEPI			LPAT			LTIAP			LTIAD			LTILAT			LLMAL			LHEEL			LMFS			LMFL			LP5MT			LP1MT			LTOE			RTHLP			RTHLD			RTHAP			RTHAD			RLEPI			RPAT			RTIAP			RTIAD			RTILAT			RLMAL			RHEEL			RMFS			RMFL			RP5MT			RP1MT			RTOE			
		X1	Y1	Z1	X2	Y2	Z2	X3	Y3	Z3	X4	Y4	Z4	X5	Y5	Z5	X6	Y6	Z6	X7	Y7	Z7	X8	Y8	Z8	X9	Y9	Z9	X10	Y10	Z10	X11	Y11	Z11	X12	Y12	Z12	X13	Y13	Z13	X14	Y14	Z14	X15	Y15	Z15	X16	Y16	Z16	X17	Y17	Z17	X18	Y18	Z18	X19	Y19	Z19	X20	Y20	Z20	X21	Y21	Z21	X22	Y22	Z22	X23	Y23	Z23	X24	Y24	Z24	X25	Y25	Z25	X26	Y26	Z26	X27	Y27	Z27	X28	Y28	Z28	X29	Y29	Z29	X30	Y30	Z30	X31	Y31	Z31	X32	Y32	Z32	X33	Y33	Z33	X34	Y34	Z34	X35	Y35	Z35	X36	Y36	Z36	X37	Y37	Z37	X38	Y38	Z38	X39	Y39	Z39	X40	Y40	Z40	X41	Y41	Z41	X42	Y42	Z42	X43	Y43	Z43	X44	Y44	Z44
237	        1.1800000668	     4204.0095329285	     1515.6093835831	      199.8695135117	     4246.5136051178	     1525.7049798965	     -121.3094592094	     4141.0684585571	     1529.5517444611	       20.3792452812	     4243.5157299042	     1231.0882806778	     -277.9255807400	     4397.8073596954	     1264.3389701843	      -69.6946978569	     3983.0356836319	     1293.9360141754	      307.3724508286	     4193.5667991638	     1106.9314479828	      302.8775453568	     4265.5842304230	     1013.3293867111	      169.9305772781	     4292.8349971771	     1011.2020969391	      -83.8482379913	     4102.1052598953	     1058.7369203568	       36.6491675377	     4107.8143119812	     1061.4733695984	       -7.7446699142	     4103.2780408859	     1058.5116147995	       78.7458419800	     4098.1599092484	      747.3511695862	     -121.0822463036	     4051.5210628510	      646.4477777481	     -103.9908528328	     4192.4312114716	      694.4315433502	      -53.9028048515	     4130.4019689560	      604.6479940414	      -46.4278459549	     3995.8027601242	      568.2056546211	      -89.0336036682	     4044.3537235260	      505.1188468933	      -57.1003556252	     3882.1649551392	      434.8840117455	      -48.1027960777	     3787.4785661697	      384.4769001007	      -45.0368523598	     3796.7200279236	      469.9216187000	      -85.4768753052	     3637.0928287506	      352.3720800877	      -56.9997429848	     3594.1234827042	      392.8961753845	        4.3725967407	     3655.7327508926	      228.1507253647	      -18.8030004501	     3576.8886804581	      235.9166890383	      -78.9119005203	     3587.4992609024	      175.0728636980	      -85.5074524879	     3629.2866468430	      179.9211204052	       11.2993121147	     3639.2196416855	      144.2402452230	      -21.4206576347	     4265.7668590546	      742.0407533646	      213.6443853378	     4293.7486171722	      650.6503820419	      187.6766085625	     4355.7994365692	      772.2745537758	      129.1919946671	     4381.2918663025	      683.9992403984	      119.4496154785	     4331.0840129852	      543.5494184494	      159.2468023300	     4406.9428443909	      544.3205833435	      115.8038377762	     4403.7024974823	      409.4763398170	      118.9388036728	     4420.0201034546	      301.6589879990	      109.1800928116	     4347.0916748047	      348.3825623989	      168.3368682861	     4401.7214775085	      133.8036060333	      126.6731023788	     4365.8874034882	       75.6570994854	       73.4373331070	     4523.0755805969	      160.7568562031	       77.0092010498	     4528.7172794342	       94.3040102720	      147.7263569832	     4578.3753395081	      113.7234643102	      151.4332294464	     4580.7220935822	      141.1090344191	       48.4799146652	     4618.6013221741	      168.8974648714	       84.7075581551
238	        1.1850000620	     4221.5535640717	     1513.4992599487	      200.7538676262	     4264.2490863800	     1524.0502357483	     -120.6589341164	     4158.7666273117	     1528.1883478165	       21.0244655609	     4259.6156597137	     1230.2585840225	     -278.1659364700	     4414.3657684326	     1259.8414421082	      -69.3086981773	     4000.6437301636	     1291.2074327469	      306.6613078117	     4211.7989063263	     1104.6507358551	      302.2341728210	     4282.7098369598	     1011.1339092255	      170.1990365982	     4310.4007244110	     1010.1121664047	      -83.6752057076	     4120.5830574036	     1056.2463998795	       36.7556810379	     4125.0306367874	     1059.2879056931	       -7.6060891151	     4116.1599159241	     1056.5247535706	       76.1731863022	     4117.8997755051	      744.9646592140	     -121.4727759361	     4071.6999769211	      644.0020799637	     -104.8683524132	     4212.2819423676	      692.5071477890	      -54.4463992119	     4150.7663726807	      601.6697883606	      -47.9444265366	     4016.1091089249	      565.7253861427	      -90.0453329086	     4064.4515752792	      501.5292167664	      -59.2869520187	     3899.8726606369	      434.3382120132	      -50.2127408981	     3803.4410476685	      387.1212601662	      -46.1821556091	     3814.8368597031	      472.9931950569	      -85.6090188026	     3652.0222425461	      360.2215945721	      -56.7623376846	     3610.2050542831	      400.6962776184	        5.6642889977	     3667.8208112717	      235.0261062384	      -20.8045244217	     3589.2602205276	      246.0634261370	      -80.8151960373	     3598.3743667603	      185.0978732109	      -88.6323451996	     3639.8949623108	      186.8017166853	        8.2322359085	     3649.4145393372	      151.7548412085	      -25.1971483231	     4281.3558578491	      738.6861443520	      215.1321172714	     4308.7725639343	      647.2417116165	      188.2242560387	     4371.2835311890	      767.4435377121	      130.0613880157	     4395.8208560944	      679.1625022888	      120.0823187828	     4347.6941585541	      541.1174893379	      159.0502262115	     4423.1827259064	      542.5682663918	      113.8511300087	     4421.3435649872	      408.3986580372	      116.8205738068	     4438.8196468353	      300.4453480244	      107.5809001923	     4366.1372661591	      346.5883135796	      167.3747301102	     4422.3515987396	      132.3609203100	      125.3366470337	     4387.1200084686	       73.7149342895	       72.1154212952	     4542.8984165192	      161.2505912781	       75.0706195831	     4549.6873855591	       94.6572199464	      145.7662582397	     4599.2176532745	      114.9740666151	      149.6943235397	     4600.7666587830	      142.5662636757	       46.7444062233	     4638.1108760834	      171.0481345654	       82.7011466026
239	        1.1900000572	     4239.1126155853	     1511.1886262894	      201.6430497169	     4282.0205688477	     1522.2055912018	     -120.0023293495	     4176.4776706696	     1526.5266895294	       21.9397544861	     4276.0856151581	     1228.6005020142	     -278.5950303078	     4430.9160709381	     1254.8060417175	      -69.0583586693	     4018.3463096619	     1287.8463268280	      306.1293959618	     4230.3407192230	     1102.2547483444	      301.8606901169	     4299.7291088104	     1008.7766647339	      170.5122590065	     4327.8768062592	     1008.6791515350	      -83.3752751350	     4137.5113725662	     1053.5438060760	       37.0503067970	     4142.2865390778	     1056.4955472946	       -7.3059201241	     4137.6094818115	     1053.4950494766	       79.0905952454	     4137.4421119690	      742.4486875534	     -121.7525005341	     4091.9359922409	      641.1935687065	     -105.7491302490	     4232.2249412537	      690.3913617134	      -55.4934740067	     4172.5847721100	      599.5191931725	      -51.8320798874	     4036.8151664734	      562.6839995384	      -91.1308526993	     4085.1026773453	      497.8889822960	      -61.4677667618	     3917.9172515869	      433.5877597332	      -51.7539978027	     3819.8316097260	      389.4708752632	      -47.2201108932	     3833.4794044495	      475.4168689251	      -86.0716700554	     3667.9662466049	      367.8086996078	      -56.5021634102	     3627.1241903305	      408.3306491375	        6.8486928940	     3680.4379224777	      241.7254894972	      -22.5240588188	     3602.5611162186	      255.9505105019	      -82.5870037079	     3610.1633310318	      194.9562579393	      -91.7741656303	     3651.4436006546	      193.6734467745	        5.3413510323	     3659.7076654434	      158.9524447918	      -28.5813808441	     4297.0676422119	      735.4530692101	      216.3339853287	     4324.4190216064	      643.9833641052	      189.0733838081	     4386.7650032043	      762.6121640205	      130.9056878090	     4410.0086688995	      674.1030812263	      120.3019022942	     4364.6380901337	      538.6385321617	      158.7032675743	     4439.6615028381	      541.2332415581	      111.8218898773	     4439.0337467194	      406.7252576351	      115.3116822243	     4456.7508697510	      298.9129424095	      106.1415672302	     4384.4923973083	      344.5674777031	      166.4107441902	     4441.7643547058	      130.5872350931	      123.9580512047	     4406.8813323975	       71.4847967029	       70.7045197487	     4562.0512962341	      160.8925759792	       73.7047195435	     4569.6742534637	       94.2967608571	      144.3090438843	     4618.7195777893	      115.1636317372	      147.9392647743	     4619.8098659515	      143.1013792753	       45.0705885887	     4656.9409370422	      171.9186306000	       81.3015103340
240	        1.1950000525	     4256.7100524902	     1508.5399150848	      202.5532126427	     4299.8259067535	     1520.0262069702	     -119.3348765373	     4194.2033767700	     1524.6090888977	       22.5636363029	     4291.7683124542	     1227.1441221237	     -278.6642909050	     4447.4897384644	     1249.1929531097	      -68.9879059792	     4036.3073348999	     1284.2555046082	      305.6947588921	     4249.3202686310	     1099.8979806900	      301.7666935921	     4316.6735172272	     1006.2166452408	      170.8484888077	     4345.3862667084	     1007.1297883987	      -83.2553505898	     4154.6053886414	     1050.8440732956	       37.2992157936	     4159.0172052383	     1053.6599159241	       -7.2519779205	     4154.0312767029	     1050.8103370667	       79.0748000145	     4157.1967601776	      739.5548224449	     -122.1293210983	     4112.3268604279	      638.1227374077	     -106.7688465118	     4252.2058486938	      688.0646348000	      -56.9960474968	     4193.5760974884	      596.4800715446	      -54.2405247688	     4057.8271150589	      559.1475963593	      -92.2671556473	     4106.3097715378	      493.9931035042	      -63.4666681290	     3936.4475011826	      432.4594438076	      -52.9449582100	     3837.3217582703	      391.5325403214	      -47.5891232491	     3853.2767295837	      477.2106111050	      -86.5082144737	     3684.7796440125	      375.0471174717	      -56.2996864319	     3644.8854207993	      415.7225191593	        7.8649520874	     3693.6198472977	      248.1805831194	      -23.9353179932	     3616.8539524078	      265.8652663231	      -84.6261382103	     3622.7127313614	      204.8005014658	      -94.7612524033	     3662.9354953766	      200.4999220371	        2.7376413345	     3670.5251932144	      166.1278605461	      -31.7517518997	     4312.7429485321	      732.2183251381	      216.8516516685	     4340.3730392456	      640.5096054077	      189.4786953926	     4402.3277759552	      757.8840255737	      131.8760514259	     4425.0118732452	      669.5480346680	      121.4581131935	     4382.1210861206	      536.1260771751	      158.3297848701	     4456.2022686005	      540.1532053947	      109.8225712776	     4456.2602043152	      404.6755135059	      113.8786077499	     4474.5151996613	      296.9224154949	      105.0316095352	     4402.0919799805	      342.1842753887	      165.3429269791	     4460.0822925568	      128.4199953079	      122.4226951599	     4425.6858825684	       69.0393224359	       68.9849257469	     4579.8146724701	      159.8683148623	       72.1163749695	     4588.2747173309	       93.0417403579	      142.6434516907	     4637.0601654053	      114.3461689353	      146.3652849197	     4637.9210948944	      142.6413804293	       43.4896349907	     4674.4689941406	      171.8226969242	       79.8657536507
